<svg width="64" height="64" xmlns="http://www.w3.org/2000/svg">

 <g>
  <title>Layer 1</title>
  <g id="outline">
   <path fill="#290646" id="svg_1" d="m9,62l46,0l0,-60l-46,0l0,60zm2,-58l42,0l0,56l-42,0l0,-56z"/>
   <path fill="#290646" id="svg_2" d="m13,48l6,0l0,-6l-6,0l0,6zm2,-4l2,0l0,2l-2,0l0,-2z"/>
   <path fill="#290646" id="svg_3" d="m29,48l6,0l0,-6l-6,0l0,6zm2,-4l2,0l0,2l-2,0l0,-2z"/>
   <path fill="#290646" id="svg_4" d="m21,56l6,0l0,-6l-6,0l0,6zm2,-4l2,0l0,2l-2,0l0,-2z"/>
   <path fill="#290646" id="svg_5" d="m29,56l6,0l0,-6l-6,0l0,6zm2,-4l2,0l0,2l-2,0l0,-2z"/>
   <path fill="#290646" id="svg_6" d="m37,48l6,0l0,-6l-6,0l0,6zm2,-4l2,0l0,2l-2,0l0,-2z"/>
   <path fill="#290646" id="svg_7" d="m21,46l6,0l0,2l-6,0l0,-2z"/>
   <path fill="#290646" id="svg_8" d="m13,54l6,0l0,2l-6,0l0,-2z"/>
   <path fill="#290646" id="svg_9" d="m37,54l6,0l0,2l-6,0l0,-2z"/>
   <path fill="#290646" id="svg_10" d="m45,54l6,0l0,2l-6,0l0,-2z"/>
   <path fill="#290646" id="svg_11" d="m45,46l6,0l0,2l-6,0l0,-2z"/>
   <path fill="#290646" id="svg_12" d="m40.707,29.293l-3.707,-3.707l0,-4.109l3.629,1.452l0.742,-1.858l-3.671,-1.466a3.98,3.98 0 0 0 -0.7,-7.463l0,-4.142l-19,0l0,29l-5,0l0,2l13,0l0,-2l-6,0l0,-21.586l5.414,-5.414l9.586,0l0,2.142a3.98,3.98 0 0 0 -0.7,7.463l-3.667,1.466l0.742,1.858l3.625,-1.452l0,4.109l-3.707,3.707l1.414,1.414l3.293,-3.293l3.293,3.293l1.414,-1.414zm-20.707,-16.707l0,-2.586l2.586,0l-2.586,2.586zm14,3.414a2,2 0 1 1 2,2a2,2 0 0 1 -2,-2z"/>
   <path fill="#290646" id="svg_13" d="m45,8l4,0l0,6l2,0l0,-8l-6,0l0,2z"/>
   <path fill="#290646" id="svg_14" d="m49,16l2,0l0,2l-2,0l0,-2z"/>
   <path fill="#290646" id="svg_15" d="m13,6l2,0l0,2l-2,0l0,-2z"/>
   <path fill="#290646" id="svg_16" d="m13,10l2,0l0,2l-2,0l0,-2z"/>
  </g>
 </g>
</svg>