<svg width="254.182" height="254.182" xmlns="http://www.w3.org/2000/svg">

 <g>
  <title>Layer 1</title>
  <g id="svg_1">
   <path fill="#290646" id="svg_2" d="m211.655,137.102c-4.143,0 -7.5,3.358 -7.5,7.5l0,77.064l-41.373,0l0,-77.064c0,-4.142 -3.357,-7.5 -7.5,-7.5l-56.379,0c-4.143,0 -7.5,3.358 -7.5,7.5l0,77.064l-41.377,0l0,-77.064c0,-4.142 -3.357,-7.5 -7.5,-7.5c-4.143,0 -7.5,3.358 -7.5,7.5l0,84.564c0,4.142 3.357,7.5 7.5,7.5l56.377,0l56.379,0l56.373,0c4.143,0 7.5,-3.358 7.5,-7.5l0,-84.564c0,-4.142 -3.358,-7.5 -7.5,-7.5zm-105.252,84.564l0,-69.564l41.379,0l0,69.564l-41.379,0z"/>
   <path fill="#290646" id="svg_3" d="m251.985,139.298l-119.596,-119.586c-2.928,-2.929 -7.677,-2.928 -10.607,0l-119.585,119.586c-2.929,2.929 -2.929,7.678 0,10.606c2.93,2.929 7.678,2.929 10.607,0l114.282,-114.282l114.293,114.283c1.464,1.464 3.384,2.196 5.303,2.196c1.919,0 3.839,-0.732 5.304,-2.197c2.928,-2.928 2.928,-7.677 -0.001,-10.606z"/>
  </g>
  <g id="svg_4"/>
  <g id="svg_5"/>
  <g id="svg_6"/>
  <g id="svg_7"/>
  <g id="svg_8"/>
  <g id="svg_9"/>
  <g id="svg_10"/>
  <g id="svg_11"/>
  <g id="svg_12"/>
  <g id="svg_13"/>
  <g id="svg_14"/>
  <g id="svg_15"/>
  <g id="svg_16"/>
  <g id="svg_17"/>
  <g id="svg_18"/>
 </g>
</svg>