<svg width="512" height="512" xmlns="http://www.w3.org/2000/svg">

 <g>
  <title>Layer 1</title>
  <path fill="#290646" id="svg_1" d="m470.57813,511.95313l-429.15625,0c-22.83985,0 -41.42188,-18.58204 -41.42188,-41.42188l0,-429.10937c0,-22.83985 18.58203,-41.42188 41.42188,-41.42188l429.15625,0c22.83984,0 41.42187,18.58203 41.42187,41.42188l0,429.10546c0,22.84375 -18.58203,41.42579 -41.42187,41.42579zm-429.15625,-491.95313c-11.8125,0 -21.42188,9.60938 -21.42188,21.42188l0,429.10546c0,11.81641 9.60938,21.42188 21.42188,21.42188l429.15625,0c11.8125,0 21.42187,-9.60547 21.42187,-21.42188l0,-429.10546c0,-11.8125 -9.60937,-21.42188 -21.42187,-21.42188l-429.15625,0zm0,0"/>
  <path fill="#290646" id="svg_2" d="m217.40234,430.94141l-103.88281,0c-17.92187,0 -32.5,-14.57813 -32.5,-32.5l0,-103.8711c0,-17.92187 14.57813,-32.5 32.5,-32.5l103.88672,0c17.91797,0 32.5,14.57813 32.5,32.5l0,103.8711c-0.00391,17.92187 -14.58203,32.5 -32.50391,32.5zm-103.88281,-148.8711c-6.89062,0 -12.5,5.60547 -12.5,12.5l0,103.8711c0,6.89453 5.60938,12.5 12.5,12.5l103.88672,0c6.89063,0 12.5,-5.60547 12.5,-12.5l0,-103.8711c0,-6.89453 -5.60937,-12.5 -12.5,-12.5l-103.88672,0zm0,0"/>
  <path fill="#290646" id="svg_3" d="m398.48047,430.94141l-103.88281,0c-17.92188,0 -32.5,-14.57813 -32.5,-32.5l0,-103.8711c0,-17.92187 14.57812,-32.5 32.5,-32.5l103.88281,0c17.92187,0 32.5,14.57813 32.5,32.5l0,103.8711c0,17.92187 -14.57813,32.5 -32.5,32.5zm-103.88281,-148.8711c-6.89453,0 -12.5,5.60547 -12.5,12.5l0,103.8711c0,6.89453 5.60547,12.5 12.5,12.5l103.88281,0c6.89062,0 12.5,-5.60547 12.5,-12.5l0,-103.8711c0,-6.89453 -5.60938,-12.5 -12.5,-12.5l-103.88281,0zm0,0"/>
  <path fill="#290646" id="svg_4" d="m217.40234,249.88281l-103.88281,0c-17.92187,0 -32.5,-14.57812 -32.5,-32.5l0,-103.87109c0,-17.92188 14.57813,-32.5 32.5,-32.5l103.88672,0c17.91797,0 32.5,14.57812 32.5,32.5l0,103.87109c-0.00391,17.92188 -14.58203,32.5 -32.50391,32.5zm-103.88281,-148.87109c-6.89062,0 -12.5,5.60547 -12.5,12.5l0,103.87109c0,6.89063 5.60938,12.5 12.5,12.5l103.88672,0c6.89063,0 12.5,-5.60937 12.5,-12.5l0,-103.87109c0,-6.89453 -5.60937,-12.5 -12.5,-12.5l-103.88672,0zm0,0"/>
  <path fill="#290646" id="svg_5" d="m398.48047,249.88281l-103.88281,0c-17.92188,0 -32.5,-14.57812 -32.5,-32.5l0,-103.87109c0,-17.92188 14.57812,-32.5 32.5,-32.5l103.88281,0c17.92187,0 32.5,14.57812 32.5,32.5l0,103.87109c0,17.92188 -14.57813,32.5 -32.5,32.5zm-103.88281,-148.87109c-6.89453,0 -12.5,5.60547 -12.5,12.5l0,103.87109c0,6.89063 5.60547,12.5 12.5,12.5l103.88281,0c6.89062,0 12.5,-5.60937 12.5,-12.5l0,-103.87109c0,-6.89453 -5.60938,-12.5 -12.5,-12.5l-103.88281,0zm0,0"/>
  <path fill="#290646" id="svg_6" d="m189.8125,393.97656c-1.29297,0 -2.59375,-0.2539 -3.82812,-0.76172l-20.51954,-8.50781l-20.52343,8.50781c-3.21485,1.33204 -6.89063,0.89844 -9.70703,-1.14843s-4.36719,-5.41016 -4.08985,-8.87891l1.7461,-22.14453l-14.4336,-16.88672c-2.26172,-2.64453 -2.98047,-6.27734 -1.90625,-9.58594c1.07422,-3.3125 3.79297,-5.82422 7.17969,-6.63672l21.60156,-5.17968l11.60547,-18.94141c1.81641,-2.96875 5.04688,-4.77734 8.52734,-4.77734c3.48047,0 6.71094,1.80859 8.52735,4.77734l11.60156,18.94141l21.60156,5.17968c3.38672,0.8125 6.10547,3.32422 7.17969,6.63672c1.07422,3.3086 0.35547,6.9375 -1.90625,9.58594l-14.43359,16.88672l1.75,22.14453c0.27343,3.46875 -1.27735,6.83203 -4.09375,8.87891c-1.73438,1.26172 -3.79688,1.91015 -5.87891,1.91015zm-24.35156,-30.09375c1.30469,0 2.60547,0.25391 3.82812,0.76172l9.27344,3.84375l-0.78906,-10.0039c-0.21094,-2.64454 0.64062,-5.26563 2.36328,-7.28125l6.51953,-7.625l-9.75781,-2.33985c-2.57813,-0.62109 -4.8086,-2.23828 -6.19531,-4.5039l-5.23829,-8.55469l-5.24218,8.55469c-1.38672,2.26562 -3.61719,3.88281 -6.19532,4.5039l-9.75781,2.33985l6.51953,7.625c1.72266,2.01953 2.57422,4.63671 2.36328,7.28125l-0.78906,10.0039l9.27344,-3.84375c1.22266,-0.50781 2.52344,-0.76172 3.82422,-0.76172zm0,0"/>
  <path fill="#290646" id="svg_7" d="m370.89063,208.22266c-1.29688,0 -2.59766,-0.25 -3.82813,-0.76172l-20.52344,-8.50781l-20.52343,8.50781c-3.21094,1.33203 -6.89063,0.89844 -9.70704,-1.14844c-2.8125,-2.04687 -4.36328,-5.40625 -4.08984,-8.875l1.74609,-22.14453l-14.42968,-16.89063c-2.26172,-2.64453 -2.98438,-6.27343 -1.90625,-9.58593c1.07422,-3.3086 3.79297,-5.82032 7.17578,-6.63282l21.60547,-5.18359l11.60156,-18.94141c1.82031,-2.96875 5.05078,-4.77734 8.52734,-4.77734c3.48047,0 6.71094,1.8125 8.52735,4.77734l11.60546,18.94141l21.60157,5.18359c3.38672,0.8125 6.10547,3.32422 7.17968,6.63282c1.07422,3.3125 0.35547,6.9414 -1.90625,9.58593l-14.43359,16.89063l1.74609,22.14453c0.27735,3.46875 -1.27343,6.82813 -4.08984,8.875c-1.73828,1.26172 -3.80078,1.91016 -5.87891,1.91016l0.00001,0zm-45.54297,-50.39844l6.51562,7.625c1.72266,2.01953 2.57422,4.64062 2.36719,7.28516l-0.78906,10l9.26953,-3.83985c2.44922,-1.01562 5.20312,-1.01562 7.65625,0l9.26953,3.83985l-0.78906,-10c-0.21094,-2.64844 0.64062,-5.26563 2.36718,-7.28516l6.51563,-7.625l-9.75781,-2.33984c-2.57813,-0.6211 -4.8086,-2.23829 -6.19532,-4.5l-5.23828,-8.5586l-5.24218,8.5586c-1.38672,2.26171 -3.61329,3.8789 -6.19532,4.5l-9.7539,2.33984zm0,0"/>
  <path fill="#290646" id="svg_8" d="m346.39453,392.78125c-1.96484,0 -3.93359,-0.57812 -5.6289,-1.73437c-7.1211,-4.85157 -42.64063,-30.26954 -42.64063,-54.23438c0,-16.70312 13.59375,-30.29297 30.29688,-30.29297c6.80468,0 13.1914,2.21875 18.35546,6.15625c5.08594,-3.72265 11.3086,-5.82031 17.875,-5.82031c16.70704,0 30.29688,13.58984 30.29688,30.29687c0,23.66016 -35.77734,49.0625 -42.95313,53.91407c-1.6914,1.14453 -3.64453,1.71484 -5.60156,1.71484zm-17.97265,-66.26562c-5.67969,0 -10.29688,4.62109 -10.29688,10.29687c0,8.32422 15.01953,23.48047 28.28906,33.64063c13.38282,-10.14844 28.53516,-25.21094 28.53516,-33.30469c0,-5.67578 -4.61719,-10.29297 -10.29688,-10.29297c-3.85937,0 -7.36718,2.13672 -9.14843,5.57422c-1.72266,3.32031 -5.14844,5.39844 -8.87891,5.39844c-0.03125,0 -0.0625,0 -0.09375,0c-3.76953,-0.03516 -7.19922,-2.1875 -8.87109,-5.56641c-1.75391,-3.54297 -5.29297,-5.74609 -9.23828,-5.74609zm0,0"/>
  <path fill="#290646" id="svg_9" d="m166.30859,210.39844c-1.96875,0 -3.93359,-0.57813 -5.63281,-1.73438c-7.12109,-4.85156 -42.64062,-30.26953 -42.64062,-54.23437c0,-16.70313 13.59375,-30.29297 30.30078,-30.29297c6.80078,0 13.1914,2.21875 18.35156,6.15234c5.08984,-3.71875 11.30859,-5.8164 17.87891,-5.8164c16.70312,0 30.29687,13.58984 30.29687,30.29687c0,23.66016 -35.78125,49.0625 -42.95312,53.91406c-1.69141,1.14454 -3.64844,1.71485 -5.60157,1.71485zm-17.97265,-66.26563c-5.67969,0 -10.30078,4.6211 -10.30078,10.29688c0,8.32422 15.01953,23.48047 28.29297,33.64062c13.3789,-10.14843 28.53515,-25.21093 28.53515,-33.30468c0,-5.67579 -4.62109,-10.29297 -10.29687,-10.29297c-3.86328,0 -7.3711,2.13672 -9.15235,5.57422c-1.71875,3.32031 -5.14453,5.39843 -8.8789,5.39843c-0.03125,0 -0.0625,0 -0.09375,0c-3.76953,-0.03515 -7.19922,-2.1875 -8.8711,-5.5664c-1.75,-3.54297 -5.28906,-5.7461 -9.23437,-5.7461zm0,0"/>
  <path fill="#290646" id="svg_10" d="m50.09375,232.73438c-5.52344,0 -10,-4.47657 -10,-10l0,-153.17969c0,-16.2461 13.21875,-29.46485 29.46875,-29.46485l153.19531,0c5.51953,0 10,4.47657 10,10c0,5.52344 -4.48047,10 -10,10l-153.19531,0c-5.22266,0 -9.46875,4.2461 -9.46875,9.46485l0,153.17969c0,5.52343 -4.47656,10 -10,10zm0,0"/>
  <path fill="#290646" id="svg_11" d="m461.90625,222.71094c-5.52344,0 -10,-4.47656 -10,-10l0,-143.15625c0,-5.21875 -4.24609,-9.46485 -9.46875,-9.46485l-153.19531,0c-5.51953,0 -10,-4.47656 -10,-10c0,-5.52343 4.48047,-10 10,-10l153.19531,0c16.25,0 29.46875,13.21875 29.46875,29.46485l0,143.15625c0,5.52344 -4.47656,10 -10,10zm0,0"/>
  <path fill="#290646" id="svg_12" d="m442.4375,471.86328l-153.19531,0c-5.51953,0 -10,-4.48047 -10,-10c0,-5.52344 4.48047,-10 10,-10l153.19531,0c5.22266,0 9.46875,-4.24609 9.46875,-9.46875l0,-143.15625c0,-5.51953 4.47656,-10 10,-10s10,4.48047 10,10l0,143.15625c0,16.25 -13.21875,29.46875 -29.46875,29.46875zm0,0"/>
  <path fill="#290646" id="svg_13" d="m222.75781,471.86328l-153.19531,0c-16.25,0 -29.46875,-13.21875 -29.46875,-29.46875l0,-153.17969c0,-5.51953 4.47656,-10 10,-10s10,4.48047 10,10l0,153.17969c0,5.22266 4.24609,9.46875 9.46875,9.46875l153.19531,0c5.51953,0 10,4.47656 10,10c0,5.51953 -4.48047,10 -10,10zm0,0"/>
  <path fill="#290646" id="svg_14" d="m461.91016,263.96484c-0.66016,0 -1.3125,-0.05859 -1.96094,-0.1875c-0.64063,-0.13281 -1.26953,-0.32031 -1.8711,-0.57031c-0.59765,-0.25 -1.17968,-0.5625 -1.71875,-0.92187c-0.55078,-0.35938 -1.05859,-0.77735 -1.51953,-1.23828c-1.87109,-1.8711 -2.92968,-4.44141 -2.92968,-7.07032c0,-0.64843 0.05859,-1.3125 0.1875,-1.96093c0.1289,-0.64063 0.32031,-1.26954 0.57031,-1.86719c0.25,-0.60156 0.55859,-1.17969 0.92187,-1.73047c0.36719,-0.53906 0.77735,-1.05078 1.25,-1.51172c2.31641,-2.32812 5.76953,-3.39844 9.01954,-2.73828c0.64062,0.12891 1.26953,0.32031 1.86718,0.57031c0.60157,0.25 1.1836,0.5586 1.73047,0.91797c0.55078,0.37109 1.0625,0.78125 1.51953,1.25c1.86328,1.85938 2.9336,4.42969 2.9336,7.07031c0,2.62891 -1.07032,5.19922 -2.9336,7.07032c-0.45703,0.46093 -0.96875,0.8789 -1.51953,1.23828c-0.53906,0.35937 -1.1289,0.67187 -1.73047,0.92187c-0.59765,0.25 -1.22656,0.4375 -1.86718,0.57031c-0.64063,0.12891 -1.30079,0.1875 -1.94922,0.1875zm0,0"/>
  <path fill="#290646" id="svg_15" d="m50.10156,263.96484c-0.66015,0 -1.32031,-0.05859 -1.96093,-0.1875c-0.64063,-0.13281 -1.26954,-0.32031 -1.8711,-0.57031c-0.60937,-0.25 -1.1875,-0.5625 -1.73047,-0.92187c-0.54687,-0.35938 -1.05859,-0.77735 -1.51953,-1.23828c-1.85937,-1.8711 -2.92969,-4.44141 -2.92969,-7.07032c0,-0.66015 0.07032,-1.3125 0.19922,-1.96093c0.13282,-0.64063 0.32032,-1.26954 0.57032,-1.86719c0.25,-0.60156 0.55859,-1.17969 0.92187,-1.73047c0.35938,-0.53906 0.77734,-1.05078 1.23828,-1.51172c0.46094,-0.46875 0.96875,-0.87891 1.51953,-1.25c0.53907,-0.35937 1.1211,-0.66797 1.73047,-0.91797c0.60156,-0.25 1.23047,-0.4414 1.8711,-0.57031c1.28906,-0.26172 2.61718,-0.26172 3.91015,0c0.63672,0.12891 1.25781,0.32031 1.86719,0.57031c0.60156,0.25 1.17969,0.5586 1.72266,0.91797c0.54687,0.37109 1.05859,0.78125 1.51953,1.25c1.87109,1.85938 2.9375,4.42969 2.9375,7.07031c0,2.62891 -1.06641,5.19922 -2.9375,7.07032c-0.46094,0.46093 -0.97266,0.8789 -1.51953,1.23828c-0.54297,0.35937 -1.1211,0.67187 -1.72266,0.92187c-0.60938,0.25 -1.23047,0.4375 -1.86719,0.57031c-0.65234,0.12891 -1.30078,0.1875 -1.94922,0.1875zm0,0"/>
 </g>
</svg>